<?xml version="1.0" encoding="UTF-8" standalone="no"?><!DOCTYPE svg PUBLIC "-//W3C//DTD SVG 1.1//EN" "http://www.w3.org/Graphics/SVG/1.1/DTD/svg11.dtd"><svg width="100%" height="100%" viewBox="0 0 32 32" version="1.1" xmlns="http://www.w3.org/2000/svg" xmlns:xlink="http://www.w3.org/1999/xlink" xml:space="preserve" xmlns:serif="http://www.serif.com/" style="fill-rule:evenodd;clip-rule:evenodd;stroke-linecap:round;"><path d="M14.588,0.219c0.997,0 1.801,0.805 1.801,1.801l0,6.304l-3.602,0l0,-6.304c0,-0.996 0.805,-1.801 1.801,-1.801Zm-7.204,3.602c-0,-0.996 0.805,-1.801 1.801,-1.801c0.996,0 1.801,0.805 1.801,1.801l0,4.503l-3.602,0l-0,-4.503Zm10.807,0c-0,-0.996 0.804,-1.801 1.801,-1.801c0.996,0 1.801,0.805 1.801,1.801l-0,5.404c-0,0.996 -0.805,1.801 -1.801,1.801c-0.997,-0 -1.801,-0.805 -1.801,-1.801l-0,-5.404Zm5.403,3.603c0,-0.997 0.805,-1.802 1.801,-1.802c0.996,0 1.801,0.805 1.801,1.802l0,3.602c0,0.996 -0.805,1.801 -1.801,1.801c-0.996,0 -1.801,-0.805 -1.801,-1.801l0,-3.602Zm-5.403,4.953l-0,-0.034c0.529,0.304 1.142,0.484 1.801,0.484c0.743,0 1.429,-0.225 2.004,-0.608c0.489,1.402 1.829,2.409 3.399,2.409c0.659,0 1.272,-0.174 1.801,-0.484l0,0.484c0,2.944 -1.412,5.561 -3.602,7.205l0,5.403c0,0.996 -0.805,1.801 -1.801,1.801l-9.006,0c-0.996,0 -1.801,-0.805 -1.801,-1.801l0,-4.413c-0.974,-0.444 -1.869,-1.058 -2.64,-1.829l-0.653,-0.653c-1.351,-1.351 -2.11,-3.186 -2.11,-5.094l-0,-1.519c-0,-1.987 1.615,-3.603 3.602,-3.603l4.953,0c1.244,0 2.251,1.008 2.251,2.252c0,1.244 -1.007,2.251 -2.251,2.251l-3.152,0c-0.495,0 -0.901,0.405 -0.901,0.901c0,0.495 0.406,0.9 0.901,0.9l3.152,0c2.24,0 4.053,-1.812 4.053,-4.052Z" style="fill:#bdc3c7;fill-rule:nonzero;"/><clipPath id="_clip1"><polygon points="4.133,0.017 35.958,0.718 35.257,32.543 3.432,31.842 4.133,0.017 "/></clipPath><g clip-path="url(#_clip1)"><g><path d="M11.669,19.287c-0.543,0.932 -0.84,1.986 -0.864,3.064c-0.077,3.492 2.733,6.428 6.225,6.505c3.492,0.077 6.428,-2.733 6.505,-6.225c0.024,-1.077 -0.226,-2.144 -0.727,-3.099" style="fill:none;fill-rule:nonzero;stroke:#ecf0f1;stroke-width:4.46px;"/><path d="M27.722,13.273c0.501,0.954 0.751,2.021 0.727,3.099c-0.077,3.491 -3.013,6.301 -6.505,6.224c-3.492,-0.077 -6.302,-3.013 -6.225,-6.505c0.024,-1.078 0.321,-2.132 0.864,-3.064" style="fill:none;fill-rule:nonzero;stroke:#e74c3c;stroke-width:4.46px;"/></g></g></svg>